<?xml version="1.0" encoding="UTF-8" standalone="no"?>
<!DOCTYPE svg PUBLIC "-//W3C//DTD SVG 1.1//EN"
 "http://www.w3.org/Graphics/SVG/1.1/DTD/svg11.dtd">
<!-- Generated by graphviz version 2.42.3 (20191010.1750)
 -->
<!-- Title: G Pages: 1 -->
<svg width="789pt" height="188pt"
 viewBox="0.00 0.00 789.18 188.00" xmlns="http://www.w3.org/2000/svg" xmlns:xlink="http://www.w3.org/1999/xlink">
<g id="graph0" class="graph" transform="scale(1 1) rotate(0) translate(4 184)">
<title>G</title>
<polygon fill="white" stroke="transparent" points="-4,4 -4,-184 785.18,-184 785.18,4 -4,4"/>
<!-- ./data/analytic.rds -->
<g id="node1" class="node">
<title>./data/analytic.rds</title>
<polygon fill="none" stroke="black" points="508.68,-108 392.68,-108 392.68,-72 508.68,-72 508.68,-108"/>
<text text-anchor="middle" x="450.68" y="-86.3" font-family="Times,serif" font-size="14.00">./data/analytic.rds</text>
</g>
<!-- ./example/02_analyses/02B_featureEngineering.R -->
<g id="node3" class="node">
<title>./example/02_analyses/02B_featureEngineering.R</title>
<ellipse fill="none" stroke="black" cx="193.68" cy="-18" rx="193.87" ry="18"/>
<text text-anchor="middle" x="193.68" y="-14.3" font-family="Times,serif" font-size="14.00">./example/02_analyses/02B_featureEngineering.R</text>
</g>
<!-- ./data/analytic.rds&#45;&gt;./example/02_analyses/02B_featureEngineering.R -->
<g id="edge2" class="edge">
<title>./data/analytic.rds&#45;&gt;./example/02_analyses/02B_featureEngineering.R</title>
<path fill="none" stroke="black" d="M392.37,-73.12C353.92,-62.64 303.38,-48.88 262.9,-37.85"/>
<polygon fill="black" stroke="black" points="263.67,-34.44 253.11,-35.19 261.83,-41.19 263.67,-34.44"/>
</g>
<!-- ./example/02_analyses/02A_descriptives.R -->
<g id="node4" class="node">
<title>./example/02_analyses/02A_descriptives.R</title>
<ellipse fill="none" stroke="black" cx="572.68" cy="-18" rx="167.87" ry="18"/>
<text text-anchor="middle" x="572.68" y="-14.3" font-family="Times,serif" font-size="14.00">./example/02_analyses/02A_descriptives.R</text>
</g>
<!-- ./data/analytic.rds&#45;&gt;./example/02_analyses/02A_descriptives.R -->
<g id="edge3" class="edge">
<title>./data/analytic.rds&#45;&gt;./example/02_analyses/02A_descriptives.R</title>
<path fill="none" stroke="black" d="M480.53,-71.88C496.75,-62.57 516.98,-50.96 534.36,-40.99"/>
<polygon fill="black" stroke="black" points="536.21,-43.96 543.15,-35.95 532.73,-37.89 536.21,-43.96"/>
</g>
<!-- ./example/01_dataConstruct/01A_analyticFile.R -->
<g id="node2" class="node">
<title>./example/01_dataConstruct/01A_analyticFile.R</title>
<polygon fill="none" stroke="black" points="716.68,-180 428.68,-180 428.68,-144 716.68,-144 716.68,-180"/>
<text text-anchor="middle" x="572.68" y="-158.3" font-family="Times,serif" font-size="14.00">./example/01_dataConstruct/01A_analyticFile.R</text>
</g>
<!-- ./example/01_dataConstruct/01A_analyticFile.R&#45;&gt;./data/analytic.rds -->
<g id="edge1" class="edge">
<title>./example/01_dataConstruct/01A_analyticFile.R&#45;&gt;./data/analytic.rds</title>
<path fill="none" stroke="black" d="M542.84,-143.88C526.74,-134.64 506.68,-123.13 489.39,-113.21"/>
<polygon fill="black" stroke="black" points="491.06,-110.13 480.64,-108.19 487.57,-116.2 491.06,-110.13"/>
</g>
<!-- ./data/test.rds -->
<g id="node5" class="node">
<title>./data/test.rds</title>
<polygon fill="none" stroke="black" points="618.18,-108 527.18,-108 527.18,-72 618.18,-72 618.18,-108"/>
<text text-anchor="middle" x="572.68" y="-86.3" font-family="Times,serif" font-size="14.00">./data/test.rds</text>
</g>
<!-- ./example/01_dataConstruct/01A_analyticFile.R&#45;&gt;./data/test.rds -->
<g id="edge4" class="edge">
<title>./example/01_dataConstruct/01A_analyticFile.R&#45;&gt;./data/test.rds</title>
<path fill="none" stroke="black" d="M572.68,-143.7C572.68,-135.98 572.68,-126.71 572.68,-118.11"/>
<polygon fill="black" stroke="black" points="576.18,-118.1 572.68,-108.1 569.18,-118.1 576.18,-118.1"/>
</g>
<!-- ./data/notUsedData.rds -->
<g id="node6" class="node">
<title>./data/notUsedData.rds</title>
<polygon fill="none" stroke="black" points="781.18,-108 636.18,-108 636.18,-72 781.18,-72 781.18,-108"/>
<text text-anchor="middle" x="708.68" y="-86.3" font-family="Times,serif" font-size="14.00">./data/notUsedData.rds</text>
</g>
<!-- ./example/01_dataConstruct/01A_analyticFile.R&#45;&gt;./data/notUsedData.rds -->
<g id="edge6" class="edge">
<title>./example/01_dataConstruct/01A_analyticFile.R&#45;&gt;./data/notUsedData.rds</title>
<path fill="none" stroke="black" d="M605.95,-143.88C624.15,-134.51 646.87,-122.81 666.32,-112.8"/>
<polygon fill="black" stroke="black" points="668,-115.88 675.29,-108.19 664.79,-109.65 668,-115.88"/>
</g>
<!-- ./data/test.rds&#45;&gt;./example/02_analyses/02A_descriptives.R -->
<g id="edge5" class="edge">
<title>./data/test.rds&#45;&gt;./example/02_analyses/02A_descriptives.R</title>
<path fill="none" stroke="black" d="M572.68,-71.7C572.68,-63.98 572.68,-54.71 572.68,-46.11"/>
<polygon fill="black" stroke="black" points="576.18,-46.1 572.68,-36.1 569.18,-46.1 576.18,-46.1"/>
</g>
</g>
</svg>
